<?xml version="1.0" standalone="no"?>
<!DOCTYPE svg PUBLIC "-//W3C//DTD SVG 20010904//EN"
 "http://www.w3.org/TR/2001/REC-SVG-20010904/DTD/svg10.dtd">
<svg version="1.0" xmlns="http://www.w3.org/2000/svg"
 width="398.000000pt" height="398.000000pt" viewBox="0 0 398.000000 398.000000"
 preserveAspectRatio="xMidYMid meet">
<metadata>
Created by potrace 1.11, written by Peter Selinger 2001-2013
</metadata>
<g transform="translate(0.000000,398.000000) scale(0.100000,-0.100000)"
fill="#000000" stroke="none">
<path d="M2683 3261 c-35 -16 -55 -54 -48 -93 5 -29 3 -35 -22 -50 -40 -24
-157 -139 -188 -186 -14 -21 -37 -44 -50 -50 -17 -8 -25 -20 -25 -37 0 -15
-13 -45 -29 -68 -109 -159 -171 -362 -158 -517 l6 -69 -47 21 c-55 24 -201 29
-413 14 l-127 -9 -15 -31 c-12 -27 -25 -34 -90 -54 -42 -12 -101 -22 -131 -22
-81 0 -143 -16 -319 -81 -87 -33 -162 -59 -167 -59 -4 0 -12 14 -15 32 -5 21
-28 52 -65 88 -31 30 -65 67 -75 83 -11 16 -26 27 -40 27 -18 0 -33 17 -69 80
-37 64 -51 80 -70 80 -25 0 -140 -45 -194 -76 -50 -29 -50 -51 2 -141 46 -81
54 -107 36 -118 -17 -10 1 -88 25 -110 12 -11 30 -33 39 -48 9 -15 43 -44 74
-64 56 -36 58 -37 167 -37 85 -1 117 3 143 16 23 12 90 22 225 33 209 18 304
35 354 65 19 11 62 22 105 26 66 6 75 4 92 -15 11 -11 27 -21 38 -21 10 0 18
-2 18 -5 0 -3 -31 -67 -69 -143 -38 -75 -88 -191 -111 -257 -23 -66 -64 -175
-91 -243 -47 -117 -48 -124 -34 -152 20 -38 19 -53 -5 -100 -12 -23 -36 -47
-61 -62 -34 -19 -46 -34 -70 -93 -16 -38 -29 -87 -29 -107 0 -23 -12 -63 -30
-97 -25 -51 -27 -61 -15 -71 22 -18 19 -36 -16 -86 -62 -90 -90 -167 -110
-301 -23 -158 -23 -153 -1 -153 16 0 21 18 37 137 16 124 22 146 62 223 23 47
52 95 62 107 l19 23 52 -35 c29 -19 55 -35 59 -35 12 0 -7 -162 -24 -210 -9
-25 -36 -82 -60 -127 -41 -75 -43 -83 -25 -83 35 0 126 195 144 310 l12 75 45
0 44 0 85 162 c92 176 114 212 125 201 8 -8 -44 -235 -75 -322 -26 -76 -25
-99 3 -111 27 -12 26 -49 -5 -140 -28 -82 -36 -175 -16 -175 11 0 17 16 21 61
4 33 18 88 32 123 14 34 25 72 25 84 0 19 3 20 25 10 18 -8 22 -15 15 -22 -18
-18 -11 -46 16 -58 24 -11 29 -10 48 15 12 15 27 27 33 27 13 0 27 -103 25
-183 -2 -43 1 -57 12 -57 14 0 26 41 26 87 0 13 11 34 25 46 19 16 29 39 37
85 6 34 15 62 19 62 4 0 10 -24 13 -54 8 -60 23 -79 58 -74 22 3 23 7 21 78
l-2 75 22 -40 c19 -33 28 -40 52 -40 41 0 43 26 10 101 -22 51 -25 67 -20 120
4 33 3 76 -3 96 -11 38 -16 30 131 226 58 77 147 241 147 269 0 27 100 133
125 133 44 0 56 13 105 114 27 55 67 132 89 170 52 91 57 124 32 179 -31 64
-70 128 -106 172 -49 62 -49 60 21 57 38 -2 97 3 142 14 42 9 124 18 182 19
206 5 341 86 514 309 137 176 187 301 157 387 -8 24 -8 40 1 66 27 75 -55 235
-187 368 -113 113 -218 171 -393 216 -86 22 -304 35 -339 20z m158 -139 c19
-21 55 -66 81 -99 57 -75 131 -132 244 -189 66 -33 81 -44 65 -49 -31 -10 -79
-71 -91 -116 -8 -27 -9 -88 -4 -179 4 -85 3 -139 -3 -143 -17 -10 -53 5 -53
22 0 25 -63 81 -169 150 -95 62 -129 73 -151 46 -10 -12 -18 -9 -55 22 -34 28
-42 40 -35 53 6 11 3 25 -8 43 -21 33 -177 156 -215 169 -55 20 -13 44 81 47
40 1 49 -4 102 -55 64 -61 90 -66 90 -16 0 31 -31 66 -90 101 -41 25 -87 27
-136 6 l-35 -14 46 54 c63 74 120 118 196 153 85 40 100 40 140 -6z m-366
-301 c47 -31 81 -61 69 -61 -6 0 -17 7 -24 15 -17 20 -77 30 -105 17 -35 -16
-32 -73 5 -111 37 -37 115 -73 149 -69 25 3 26 6 26 60 l0 57 30 -23 c17 -13
30 -32 30 -43 0 -26 -70 -103 -93 -103 -44 0 -212 130 -212 165 0 31 56 115
77 115 10 0 32 -9 48 -19z m27 -50 c13 -5 38 -22 57 -38 31 -26 33 -33 27 -66
-6 -34 -10 -37 -39 -37 -18 0 -47 9 -65 20 -27 17 -31 24 -26 45 5 22 3 25
-20 25 -26 0 -32 13 -20 44 7 18 50 21 86 7z m-63 -159 c48 -36 96 -64 117
-68 41 -8 33 -17 -30 -35 -21 -6 -49 -22 -62 -36 -17 -18 -24 -21 -24 -11 0 9
7 18 15 22 18 6 20 26 3 26 -18 0 -48 -31 -48 -51 0 -11 9 -24 20 -31 11 -7
20 -18 20 -24 0 -21 71 -75 94 -72 13 1 31 -5 40 -15 10 -9 24 -17 31 -17 18
0 49 46 40 60 -10 17 -25 11 -25 -10 0 -24 -22 -26 -40 -5 -7 9 -20 13 -27 11
-20 -8 -70 20 -84 45 -17 32 -3 68 29 75 56 12 84 28 117 66 28 33 36 38 52
29 33 -17 48 -40 35 -53 -16 -16 -15 -69 2 -94 30 -42 221 -174 253 -174 8 0
25 11 39 25 21 21 31 25 60 19 19 -3 37 -10 39 -15 3 -4 -5 -30 -19 -57 l-25
-49 29 -28 c15 -15 33 -24 39 -21 7 4 11 -1 11 -13 0 -14 -6 -21 -20 -21 -11
0 -20 -4 -20 -10 0 -14 33 -13 48 2 7 7 12 23 12 37 0 31 37 71 65 71 12 0 34
-9 49 -21 14 -11 26 -17 26 -12 0 16 -16 32 -45 47 l-30 16 32 0 c46 0 66 -25
60 -73 -7 -52 -32 -76 -130 -126 l-82 -43 -54 21 c-45 18 -55 19 -65 8 -22
-27 -82 -56 -171 -82 -71 -21 -113 -27 -195 -28 -102 -1 -107 0 -182 37 -103
51 -199 148 -223 227 -25 81 -29 150 -15 236 12 77 57 209 100 293 l22 43 18
-30 c10 -16 54 -57 99 -91z m385 -56 c43 -18 51 -31 20 -34 -13 -1 -40 -8 -59
-16 l-34 -15 19 -39 c11 -22 42 -59 71 -83 41 -34 58 -42 88 -41 78 2 74 -1
67 44 -4 22 -19 56 -34 76 l-27 36 45 -31 c69 -47 85 -69 73 -96 -20 -42 -64
-87 -88 -87 -28 0 -156 82 -214 138 l-43 41 23 43 c23 42 48 78 56 78 2 0 19
-6 37 -14z m70 -57 c-2 -4 16 -23 41 -44 48 -39 60 -80 31 -104 -34 -29 -162
33 -135 65 14 17 3 34 -20 34 -17 0 -48 27 -40 34 22 19 134 33 123 15z
m-2280 -344 c47 -82 82 -153 80 -157 -12 -19 -95 -59 -111 -54 -17 6 -175 273
-181 307 -3 18 80 61 110 56 12 -1 49 -57 102 -152z m210 -171 c22 -57 34 -73
44 -59 11 17 342 135 407 145 33 6 81 7 108 4 28 -4 47 -3 47 3 0 5 18 15 41
22 23 7 47 15 55 18 11 4 14 -8 14 -60 0 -36 4 -77 9 -90 9 -24 8 -25 -37 -30
-26 -3 -48 -1 -50 4 -6 14 -22 11 -49 -11 -48 -37 -147 -59 -346 -76 -173 -14
-198 -19 -253 -45 -43 -20 -77 -29 -112 -29 -90 0 -90 7 0 69 53 36 84 64 86
77 2 12 -25 69 -62 133 -37 62 -66 114 -66 116 0 3 33 -28 73 -68 51 -52 78
-88 91 -123z m1380 120 c3 -9 6 -24 6 -35 0 -10 5 -19 11 -19 7 0 39 -24 73
-54 34 -29 82 -64 108 -78 43 -23 46 -26 31 -41 -23 -22 -9 -33 23 -18 15 6
29 9 32 7 2 -3 -8 -10 -24 -17 -69 -26 -215 19 -286 89 -45 43 -49 81 -18 142
22 43 34 50 44 24z m-1786 -112 c2 -7 -3 -12 -12 -12 -9 0 -16 7 -16 16 0 17
22 14 28 -4z m29 -51 c10 -15 9 -20 -2 -24 -12 -5 -45 21 -45 36 0 15 36 6 47
-12z m45 -81 l22 -35 -32 29 c-32 29 -42 51 -21 44 5 -2 20 -19 31 -38z m142
9 c-8 -13 -24 -1 -24 18 0 13 3 13 15 3 8 -7 12 -16 9 -21z m1719 -664 l58
-25 -32 -40 c-17 -21 -41 -40 -53 -42 -17 -2 -22 -13 -29 -58 -9 -67 -46 -134
-152 -275 -45 -60 -88 -120 -96 -133 -8 -12 -19 -22 -26 -22 -16 0 -16 0 3
-46 12 -29 15 -57 11 -113 -5 -64 -2 -81 19 -128 43 -99 26 -117 -21 -22 -52
104 -82 106 -65 4 12 -75 13 -135 1 -135 -5 0 -16 39 -25 87 -15 80 -31 113
-47 95 -4 -4 -15 -43 -24 -87 -23 -111 -25 -115 -41 -115 -17 0 -17 8 1 95 17
79 19 138 6 133 -5 -1 -37 -38 -70 -80 -34 -43 -66 -78 -71 -78 -18 0 -10 25
26 79 42 62 73 128 74 155 0 15 -6 17 -42 13 -24 -3 -56 -8 -73 -12 -38 -7
-68 10 -45 25 8 5 24 10 35 10 19 0 46 15 111 63 18 13 57 31 87 41 l55 17 37
97 c21 53 53 137 71 185 45 119 80 181 127 223 21 19 40 43 42 53 2 10 13 38
25 61 l21 42 22 -20 c12 -12 48 -32 80 -47z m-923 -233 c0 -7 -10 -17 -22 -22
l-23 -9 23 0 c12 -1 25 5 28 13 4 11 15 10 58 -6 49 -18 52 -21 48 -50 -3 -20
2 -39 17 -59 26 -34 23 -35 -28 -9 -37 18 -51 18 -51 -2 0 -5 27 -21 60 -36
l59 -27 -22 -36 c-29 -46 -87 -98 -162 -143 -33 -20 -54 -36 -47 -36 26 0 89
39 131 82 l44 43 -25 -50 c-14 -27 -42 -85 -63 -128 -24 -49 -43 -77 -54 -77
-37 0 -163 70 -234 131 -8 6 47 118 135 270 40 70 68 129 82 172 5 15 9 16 26
5 11 -7 20 -19 20 -26z m166 -64 c-3 -7 -7 -26 -10 -41 -9 -37 -26 -25 -26 19
0 27 4 34 20 34 11 0 18 -5 16 -12z m124 -13 c88 -12 86 -10 82 -53 -5 -46 17
-73 56 -71 l27 2 -28 4 c-34 5 -49 32 -41 72 6 29 9 31 53 30 25 0 62 -3 82
-7 l36 -7 -39 -100 c-22 -55 -47 -106 -56 -112 -13 -11 -13 -13 -1 -14 8 0 1
-7 -16 -14 -25 -11 -34 -11 -57 1 -16 8 -28 20 -29 27 0 6 -7 -9 -15 -35 -13
-42 -61 -98 -84 -98 -5 0 -11 26 -13 58 l-3 57 -2 -62 c-2 -56 -4 -63 -22 -63
-17 0 -19 5 -14 28 22 98 37 155 56 208 13 38 18 69 13 80 -6 16 -10 14 -24
-17 -17 -37 -17 -37 -49 -23 -41 17 -46 31 -32 84 11 40 13 42 43 36 18 -3 52
-8 77 -11z m-420 -25 c-6 -11 -16 -18 -21 -14 -6 3 -3 12 8 20 24 18 26 17 13
-6z m-20 -36 c0 -10 -52 -95 -56 -91 -7 7 36 97 46 97 6 0 10 -3 10 -6z m525
-237 c-20 -11 -27 -5 -19 17 5 13 9 14 21 5 12 -11 12 -14 -2 -22z m-90 -202
c16 -19 16 -19 5 3 -6 12 -8 27 -5 32 7 11 38 13 48 4 8 -8 -15 -63 -45 -108
l-24 -35 -58 26 c-61 28 -62 30 -37 96 9 23 11 24 55 13 25 -7 53 -21 61 -31z
m101 -110 c-3 -8 -12 -15 -21 -15 -14 0 -14 3 2 24 18 24 30 18 19 -9z"/>
<path d="M2786 2785 c4 -8 11 -15 16 -15 6 0 5 6 -2 15 -7 8 -14 15 -16 15 -2
0 -1 -7 2 -15z"/>
<path d="M2840 2766 c0 -2 7 -7 16 -10 8 -3 12 -2 9 4 -6 10 -25 14 -25 6z"/>
<path d="M2913 2689 c-43 -16 -27 -43 57 -93 87 -52 100 -67 100 -120 0 -43
16 -55 31 -22 19 41 2 112 -36 155 -47 51 -123 92 -152 80z"/>
<path d="M2336 2314 c-21 -20 -21 -38 0 -30 18 7 62 -14 88 -43 11 -12 25 -21
31 -21 7 0 31 -20 54 -45 42 -45 55 -53 65 -36 8 12 -4 42 -14 36 -4 -2 -16 5
-26 16 -10 11 -33 29 -52 41 -19 11 -45 31 -59 44 -14 13 -34 26 -44 29 -11 4
-17 11 -14 16 10 15 -12 10 -29 -7z"/>
<path d="M2384 2195 c39 -34 66 -45 66 -25 0 6 -5 10 -11 10 -6 0 -25 11 -43
25 -49 37 -57 30 -12 -10z"/>
<path d="M1538 729 c-21 -11 -38 -22 -38 -24 0 -12 28 -2 55 20 36 30 32 31
-17 4z"/>
<path d="M1696 665 c4 -22 11 -44 16 -50 7 -7 8 2 3 25 -11 52 -27 73 -19 25z"/>
</g>
</svg>
